<svg id="Capa_1" enable-background="new 0 0 512 512" height="512" viewBox="0 0 512 512" width="512" xmlns="http://www.w3.org/2000/svg"><g><path d="m241 226h30v60h-30z" fill="#b3f2ff"/><path d="m256 226h15v60h-15z" fill="#80eaff"/><path d="m391 271v181l-30 15h-210l-30-15v-181z" fill="#333e73"/><path d="m391 271v181l-30 15h-105v-196z" fill="#1f2859"/><path d="m451 121h-5.099c-13.801-38.401-51.901-65.101-95.101-59.401-17.099-36.599-53.7-61.599-94.8-61.599s-77.701 25-94.799 61.599c-43.2-5.7-81.301 21-95.101 59.401h-5.1c-32.999 0-61 26.999-61 60 0 32.999 28.001 60 61 60h390c32.999 0 61-27.001 61-60 0-33.001-28.001-60-61-60z" fill="#e6f7ff"/><path d="m512 181c0 32.999-28.001 60-61 60h-195v-241c41.1 0 77.701 25 94.799 61.599 43.2-5.7 81.301 21 95.101 59.401h5.1c32.999 0 61 26.999 61 60z" fill="#cce6ff"/><path d="m430.3 512h-348.6l39.3-60h270z" fill="#4d578c"/><path d="m430.3 512h-174.3v-60h135z" fill="#333e73"/><path d="m151 301h210v121h-210z" fill="#6cf"/><path d="m256 301h105v121h-105z" fill="#4da6ff"/></g></svg>