<svg height="512" viewBox="0 0 64 64" width="512" xmlns="http://www.w3.org/2000/svg"><g id="anti_virus" data-name="anti virus"><path d="m61 11v24a2.006 2.006 0 0 1 -2 2h-34a2.006 2.006 0 0 1 -2-2v-24z" fill="#46f8ff"/><path d="m61 11v24a2.006 2.006 0 0 1 -2 2h-4a2.006 2.006 0 0 0 2-2v-24z" fill="#00e7f0"/><path d="m61 5v6h-38v-6a2.006 2.006 0 0 1 2-2h34a2.006 2.006 0 0 1 2 2z" fill="#ffde55"/><path d="m61 5v6h-4v-6a2.006 2.006 0 0 0 -2-2h4a2.006 2.006 0 0 1 2 2z" fill="#ffcd00"/><path d="m57.75 53.31a6.022 6.022 0 0 1 -.34.83l2.01 2.58-2.7 2.7-2.58-2.01a6.022 6.022 0 0 1 -.83.34l-.41 3.25h-3.8l-.41-3.25a6.022 6.022 0 0 1 -.83-.34l-2.58 2.01-2.7-2.7 2.01-2.58c-.07-.14-.14-.29-.2-.44-.05-.13-.1-.26-.14-.39l-3.25-.41v-3.8l3.25-.41a6.022 6.022 0 0 1 .34-.83l-2.01-2.58 2.7-2.7.72.56 1.86 1.45a6.022 6.022 0 0 1 .83-.34l.41-3.25h3.8l.41 3.25a6.022 6.022 0 0 1 .83.34l2.58-2.01 2.7 2.7-2.01 2.58a6.022 6.022 0 0 1 .34.83l3.25.41v3.8z" fill="#c0ab91"/><path d="m57.75 53.31a6.022 6.022 0 0 1 -.34.83l2.01 2.58-2.7 2.7-2.58-2.01a6.022 6.022 0 0 1 -.83.34l-.41 3.25h-3.8l-.41-3.25a6.022 6.022 0 0 1 -.83-.34l-2.58 2.01-1.37-1.37a21.327 21.327 0 0 0 10.09-7.05 20.921 20.921 0 0 0 3.66-7.48l1.76 1.76-2.01 2.58a6.022 6.022 0 0 1 .34.83l3.25.41v3.8z" fill="#b39a7c"/><circle cx="51" cy="51" fill="#ffde55" r="4"/><path d="m50 37v4h-.9l-.41 3.25a6.022 6.022 0 0 0 -.83.34l-1.86-1.45v-18.14l-14-3-14 3v18.14l-1.86 1.45a6.022 6.022 0 0 0 -.83-.34l-.41-3.25h-.9v-19l9-2 9-2 18 4z" fill="#e0e0e2"/><path d="m50 22v19h-.9l-.41 3.25a6.022 6.022 0 0 0 -.83.34l-1.86-1.45v-21.14l-16-3.56 2-.44z" fill="#c6c5ca"/><path d="m46 25v18.14l-.72-.56-2.7 2.7 2.01 2.58a6.022 6.022 0 0 0 -.34.83l-3.25.41v2.23a42.623 42.623 0 0 1 -9 5.67 44.7 44.7 0 0 1 -7-4.1c-.67-.49-1.35-1.01-2-1.57v-2.23l-3.25-.41a6.022 6.022 0 0 0 -.34-.83l2.01-2.58-2.7-2.7-.72.56v-18.14l14-3z" fill="#57a4ff"/><path d="m46 25v18.14l-.72-.56-2.7 2.7 2.01 2.58a6.022 6.022 0 0 0 -.34.83l-3.25.41v2.23a42.623 42.623 0 0 1 -9 5.67s-.8-.35-2-1a40.09 40.09 0 0 0 7-4.67v-2.23l3.25-.41a6.022 6.022 0 0 1 .34-.83l-2.01-2.58 2.7-2.7.72.56v-18.14l-12-2.57 2-.43z" fill="#2488ff"/><path d="m44.25 53.31c.04.13.09.26.14.39a42.349 42.349 0 0 1 -10.76 6.95l-1.63.73-1.63-.73a42.349 42.349 0 0 1 -10.76-6.95c.05-.13.1-.26.14-.39l3.25-.41v-1.57c.65.56 1.33 1.08 2 1.57a44.7 44.7 0 0 0 7 4.1 42.623 42.623 0 0 0 9-5.67v1.57z" fill="#e0e0e2"/><path d="m38 36-6 12v-8h-6l6-12v8z" fill="#ffde55"/><path d="m23 49.1v3.8l-3.25.41c-.04.13-.09.26-.14.39-.06.15-.13.3-.2.44l2.01 2.58-2.7 2.7-2.58-2.01a6.022 6.022 0 0 1 -.83.34l-.41 3.25h-3.8l-.41-3.25a6.022 6.022 0 0 1 -.83-.34l-2.58 2.01-2.7-2.7 2.01-2.58a6.022 6.022 0 0 1 -.34-.83l-3.25-.41v-3.8l3.25-.41a6.022 6.022 0 0 1 .34-.83l-2.01-2.58 2.7-2.7 2.58 2.01a6.022 6.022 0 0 1 .83-.34l.41-3.25h3.8l.41 3.25a6.022 6.022 0 0 1 .83.34l1.86-1.45.72-.56 2.7 2.7-2.01 2.58a6.022 6.022 0 0 1 .34.83z" fill="#c0ab91"/><path d="m19.75 53.31a6.022 6.022 0 0 1 -.34.83l2.01 2.58-2.7 2.7-2.58-2.01a6.022 6.022 0 0 1 -.83.34l-.41 3.25h-3.8l-.41-3.25a6.022 6.022 0 0 1 -.83-.34l-2.58 2.01-1.37-1.37a21.327 21.327 0 0 0 10.09-7.05 20.921 20.921 0 0 0 3.66-7.48l1.76 1.76-2.01 2.58a6.022 6.022 0 0 1 .34.83l3.25.41v3.8z" fill="#b39a7c"/><circle cx="13" cy="51" fill="#ffde55" r="4"/><path d="m55 51a3.995 3.995 0 0 1 -7.64 1.64 3.931 3.931 0 0 0 1.64.36 4 4 0 0 0 4-4 3.931 3.931 0 0 0 -.36-1.64 3.988 3.988 0 0 1 2.36 3.64z" fill="#ffcd00"/><path d="m17 51a3.995 3.995 0 0 1 -7.64 1.64 3.931 3.931 0 0 0 1.64.36 4 4 0 0 0 4-4 3.931 3.931 0 0 0 -.36-1.64 3.988 3.988 0 0 1 2.36 3.64z" fill="#ffcd00"/><path d="m59 38a3.009 3.009 0 0 0 3-3v-30a3.009 3.009 0 0 0 -3-3h-34a3.009 3.009 0 0 0 -3 3v14.2l-8.22 1.82a1.015 1.015 0 0 0 -.78.98v18h-1.9a1.013 1.013 0 0 0 -1 .88l-.3 2.4-1.91-1.49a.994.994 0 0 0 -1.32.09l-2.69 2.69a1 1 0 0 0 -.09 1.32l1.49 1.91-2.4.3a1.013 1.013 0 0 0 -.88 1v3.8a1.013 1.013 0 0 0 .88 1l2.4.3-1.49 1.91a1 1 0 0 0 .09 1.32l2.69 2.69a.994.994 0 0 0 1.32.09l1.91-1.49.3 2.4a1.013 1.013 0 0 0 1 .88h3.8a1.013 1.013 0 0 0 1-.88l.3-2.4 1.91 1.49a1 1 0 0 0 1.32-.09l2.69-2.69a1.153 1.153 0 0 0 .19-.26 46.277 46.277 0 0 0 7.65 4.39l1.63.73a.979.979 0 0 0 .82 0l1.63-.73a46.277 46.277 0 0 0 7.65-4.39 1.153 1.153 0 0 0 .19.26l2.69 2.69a.994.994 0 0 0 1.32.09l1.91-1.49.3 2.4a1.013 1.013 0 0 0 1 .88h3.8a1.013 1.013 0 0 0 1-.88l.3-2.4 1.91 1.49a.994.994 0 0 0 1.32-.09l2.69-2.69a1 1 0 0 0 .09-1.32l-1.49-1.91 2.4-.3a1.013 1.013 0 0 0 .88-1v-3.8a1.013 1.013 0 0 0 -.88-1l-2.4-.3 1.49-1.91a1 1 0 0 0 -.09-1.32l-2.69-2.69a.994.994 0 0 0 -1.32-.09l-1.91 1.49-.3-2.4a1.013 1.013 0 0 0 -1-.88h-1.9v-2zm-35-33a1 1 0 0 1 1-1h34a1 1 0 0 1 1 1v5h-36zm-9 17.8 17-3.78 17 3.78v17.22a.99.99 0 0 0 -.9.86l-.3 2.4-.8-.62v-17.66a1 1 0 0 0 -.79-.98l-14-3a.991.991 0 0 0 -.42 0l-14 3a1 1 0 0 0 -.79.98v17.66l-.8.62-.3-2.4a.99.99 0 0 0 -.9-.86zm26.79 23.09 1.49 1.91-2.4.3a1.013 1.013 0 0 0 -.88 1v1.76a42.669 42.669 0 0 1 -8 5.04 44.542 44.542 0 0 1 -6.41-3.81c-.62-.45-1.13-.85-1.59-1.23v-1.76a1.013 1.013 0 0 0 -.88-1l-2.4-.3 1.49-1.91a1 1 0 0 0 -.09-1.32l-2.69-2.69a.842.842 0 0 0 -.43-.24v-15.83l13-2.79 13 2.79v15.83a.842.842 0 0 0 -.43.24l-2.69 2.69a1 1 0 0 0 -.09 1.32zm-23.15 12.2-1.89-1.47a.979.979 0 0 0 -1.05-.11c-.23.11-.47.21-.71.3a1 1 0 0 0 -.67.82l-.3 2.37h-2.04l-.3-2.37a1 1 0 0 0 -.67-.82c-.24-.09-.48-.19-.71-.3a.979.979 0 0 0 -1.05.11l-1.89 1.47-1.45-1.45 1.47-1.89a.979.979 0 0 0 .11-1.05c-.11-.23-.21-.47-.3-.71a1 1 0 0 0 -.82-.67l-2.37-.3v-2.04l2.37-.3a1 1 0 0 0 .82-.67c.09-.24.19-.48.3-.71a.979.979 0 0 0 -.11-1.05l-1.47-1.89 1.45-1.45 1.89 1.47a.979.979 0 0 0 1.05.11c.23-.11.47-.21.71-.3a1 1 0 0 0 .67-.82l.3-2.37h2.04l.3 2.37a1 1 0 0 0 .67.82c.24.09.48.19.71.3a.979.979 0 0 0 1.05-.11l1.89-1.47 1.45 1.45-1.47 1.89a.979.979 0 0 0 -.11 1.05c.11.23.21.47.3.71a1 1 0 0 0 .82.67l2.37.3v2.04l-2.37.3a1 1 0 0 0 -.82.67c-.09.24-.19.48-.3.71a.979.979 0 0 0 .11 1.05l1.47 1.89zm14.58 1.65-1.22.54-1.22-.54a43.558 43.558 0 0 1 -9.2-5.65l1.54-.19a1.033 1.033 0 0 0 .78-.57c.16.12.33.25.51.38a44.9 44.9 0 0 0 7.18 4.2.979.979 0 0 0 .82 0 45.249 45.249 0 0 0 7.7-4.58 1 1 0 0 0 .77.57l1.54.19a43.558 43.558 0 0 1 -9.2 5.65zm18.8-17.74.3 2.37a1 1 0 0 0 .67.82c.24.09.48.19.71.3a.979.979 0 0 0 1.05-.11l1.89-1.47 1.45 1.45-1.47 1.89a.979.979 0 0 0 -.11 1.05c.11.23.21.47.3.71a1 1 0 0 0 .82.67l2.37.3v2.04l-2.37.3a1 1 0 0 0 -.82.67c-.09.24-.19.48-.3.71a.979.979 0 0 0 .11 1.05l1.47 1.89-1.45 1.45-1.89-1.47a.979.979 0 0 0 -1.05-.11c-.23.11-.47.21-.71.3a1 1 0 0 0 -.67.82l-.3 2.37h-2.04l-.3-2.37a1 1 0 0 0 -.67-.82c-.24-.09-.48-.19-.71-.3a.979.979 0 0 0 -1.05.11l-1.89 1.47-1.45-1.45 1.47-1.89a.979.979 0 0 0 .11-1.05c-.11-.23-.21-.47-.3-.71a1 1 0 0 0 -.82-.67l-2.37-.3v-2.04l2.37-.3a1 1 0 0 0 .82-.67c.09-.24.19-.48.3-.71a.979.979 0 0 0 -.11-1.05l-1.47-1.89 1.45-1.45 1.89 1.47a.979.979 0 0 0 1.05.11c.23-.11.47-.21.71-.3a1 1 0 0 0 .67-.82l.3-2.37zm-1.8-20.98-18-4a1.087 1.087 0 0 0 -.44 0l-7.78 1.73v-6.75h36v23a1 1 0 0 1 -1 1h-8v-14a1.015 1.015 0 0 0 -.78-.98z"/><path d="m56 6h2v2h-2z"/><path d="m52 6h2v2h-2z"/><path d="m48 6h2v2h-2z"/><path d="m13 46a5 5 0 1 0 5 5 5.006 5.006 0 0 0 -5-5zm0 8a3 3 0 1 1 3-3 3 3 0 0 1 -3 3z"/><path d="m46 51a5 5 0 1 0 5-5 5.006 5.006 0 0 0 -5 5zm5-3a3 3 0 1 1 -3 3 3 3 0 0 1 3-3z"/><path d="m38 35h-5v-7a1 1 0 0 0 -1.895-.447l-6 12a1 1 0 0 0 .895 1.447h5v7a1 1 0 0 0 .77.973 1 1 0 0 0 1.125-.526l6-12a1 1 0 0 0 -.895-1.447zm-5 8.764v-3.764a1 1 0 0 0 -1-1h-4.382l3.382-6.764v3.764a1 1 0 0 0 1 1h4.382z"/></g></svg>