<svg id="Fill_out_line" height="512" viewBox="0 0 512 512" width="512" xmlns="http://www.w3.org/2000/svg" data-name="Fill out line"><path d="m384 320h-96a32 32 0 0 1 -32-32v-232a32 32 0 0 1 32-32h168a32 32 0 0 1 32 32v232a32 32 0 0 1 -32 32h-8" fill="#2d80b3"/><rect fill="#396795" height="64" rx="32" width="232" x="256" y="256"/><path d="m384 280h64v56h-64z" fill="#eebe33"/><path d="m32 456h64v32h-64z" fill="#eedc9a"/><path d="m104 456h-80v-64l24-40h32l24 40z" fill="#eebe33"/><path d="m456 16h-168a40.04584 40.04584 0 0 0 -40 40v232a40.04584 40.04584 0 0 0 40 40h88v8a8.00039 8.00039 0 0 0 8 8h23.69531a104.0018 104.0018 0 0 1 -207.69531-8v-248a72 72 0 0 0 -144 0v256h-8a8.00153 8.00153 0 0 0 -6.86035 3.88379l-24 40a8.00777 8.00777 0 0 0 -1.13965 4.11621v64a8.00039 8.00039 0 0 0 8 8v24a8.00039 8.00039 0 0 0 8 8h64a8.00039 8.00039 0 0 0 8-8v-24a8.00039 8.00039 0 0 0 8-8v-64a8.00777 8.00777 0 0 0 -1.13965-4.11621l-24-40a8.00153 8.00153 0 0 0 -6.86035-3.88379h-8v-256a56 56 0 0 1 112 0v248a119.99691 119.99691 0 0 0 239.72705 8h24.27295a8.00039 8.00039 0 0 0 8-8v-8a40.04584 40.04584 0 0 0 40-40v-232a40.04584 40.04584 0 0 0 -40-40zm-368 464h-48v-16h48zm8-85.78418v53.78418h-64v-53.78418l20.5293-34.21582h22.9414zm192-362.21582h168a24.0275 24.0275 0 0 1 24 24v200.022a39.79015 39.79015 0 0 0 -24-8.022h-168a39.79015 39.79015 0 0 0 -24 8.022v-200.022a24.0275 24.0275 0 0 1 24-24zm152 296h-16v-16h-16v16h-16v-40h48zm16-16v-32a8.00039 8.00039 0 0 0 -8-8h-64a8.00039 8.00039 0 0 0 -8 8v32h-88a24 24 0 0 1 0-48h168a24 24 0 0 1 0 48z"/><circle cx="296" cy="288" r="8"/><circle cx="328" cy="288" r="8"/></svg>